<?xml version="1.0" encoding="UTF-8" standalone="no"?>
<!DOCTYPE svg PUBLIC "-//W3C//DTD SVG 1.1//EN"
 "http://www.w3.org/Graphics/SVG/1.1/DTD/svg11.dtd">
<!-- Generated by graphviz version 5.0.0 (20220707.1540)
 -->
<!-- Title: dependencies Pages: 1 -->
<svg width="817pt" height="247pt"
 viewBox="0.00 0.00 817.00 246.80" xmlns="http://www.w3.org/2000/svg" xmlns:xlink="http://www.w3.org/1999/xlink">
<g id="graph0" class="graph" transform="scale(1 1) rotate(0) translate(4 242.8)">
<title>dependencies</title>
<polygon fill="white" stroke="transparent" points="-4,4 -4,-242.8 813,-242.8 813,4 -4,4"/>
<text text-anchor="middle" x="404.5" y="-8.2" font-family="sans-serif" font-size="14.00">dependencies</text>
<g id="clust1" class="cluster">
<title>cluster_TodoModule</title>
<polygon fill="none" stroke="black" stroke-dasharray="1,5" points="8,-32.8 8,-230.8 801,-230.8 801,-32.8 8,-32.8"/>
</g>
<g id="clust9" class="cluster">
<title>cluster_TodoModule_exports</title>
<polygon fill="none" stroke="black" points="320,-170.8 320,-222.8 478,-222.8 478,-170.8 320,-170.8"/>
</g>
<g id="clust2" class="cluster">
<title>cluster_TodoModule_declarations</title>
<polygon fill="none" stroke="black" points="16,-40.8 16,-92.8 793,-92.8 793,-40.8 16,-40.8"/>
</g>
<!-- TodoAddComponent -->
<g id="node1" class="node">
<title>TodoAddComponent</title>
<polygon fill="#ffffb3" stroke="black" points="785.49,-84.8 650.51,-84.8 650.51,-48.8 785.49,-48.8 785.49,-84.8"/>
<text text-anchor="middle" x="718" y="-62.6" font-family="Times,serif" font-size="14.00">TodoAddComponent</text>
</g>
<!-- TodoModule -->
<g id="node6" class="node">
<title>TodoModule</title>
<polygon fill="#8dd3c7" stroke="black" points="443.6,-149.8 440.6,-153.8 419.6,-153.8 416.6,-149.8 354.4,-149.8 354.4,-113.8 443.6,-113.8 443.6,-149.8"/>
<text text-anchor="middle" x="399" y="-127.6" font-family="Times,serif" font-size="14.00">TodoModule</text>
</g>
<!-- TodoAddComponent&#45;&gt;TodoModule -->
<g id="edge1" class="edge">
<title>TodoAddComponent&#45;&gt;TodoModule</title>
<path fill="none" stroke="black" d="M718,-85.08C718,-106.12 718,-137.8 718,-137.8 718,-137.8 453.69,-137.8 453.69,-137.8"/>
<polygon fill="black" stroke="black" points="453.69,-134.3 443.69,-137.8 453.69,-141.3 453.69,-134.3"/>
</g>
<!-- TodoFooterComponent -->
<g id="node2" class="node">
<title>TodoFooterComponent</title>
<polygon fill="#ffffb3" stroke="black" points="632.94,-84.8 485.06,-84.8 485.06,-48.8 632.94,-48.8 632.94,-84.8"/>
<text text-anchor="middle" x="559" y="-62.6" font-family="Times,serif" font-size="14.00">TodoFooterComponent</text>
</g>
<!-- TodoFooterComponent&#45;&gt;TodoModule -->
<g id="edge2" class="edge">
<title>TodoFooterComponent&#45;&gt;TodoModule</title>
<path fill="none" stroke="black" d="M559,-84.82C559,-102.17 559,-125.8 559,-125.8 559,-125.8 453.57,-125.8 453.57,-125.8"/>
<polygon fill="black" stroke="black" points="453.57,-122.3 443.57,-125.8 453.57,-129.3 453.57,-122.3"/>
</g>
<!-- TodoItemComponent -->
<g id="node3" class="node">
<title>TodoItemComponent</title>
<polygon fill="#ffffb3" stroke="black" points="467.04,-84.8 330.96,-84.8 330.96,-48.8 467.04,-48.8 467.04,-84.8"/>
<text text-anchor="middle" x="399" y="-62.6" font-family="Times,serif" font-size="14.00">TodoItemComponent</text>
</g>
<!-- TodoItemComponent&#45;&gt;TodoModule -->
<g id="edge3" class="edge">
<title>TodoItemComponent&#45;&gt;TodoModule</title>
<path fill="none" stroke="black" d="M399,-84.91C399,-84.91 399,-103.79 399,-103.79"/>
<polygon fill="black" stroke="black" points="395.5,-103.79 399,-113.79 402.5,-103.79 395.5,-103.79"/>
</g>
<!-- TodoListComponent -->
<g id="node4" class="node">
<title>TodoListComponent</title>
<polygon fill="#ffffb3" stroke="black" points="312.16,-84.8 179.84,-84.8 179.84,-48.8 312.16,-48.8 312.16,-84.8"/>
<text text-anchor="middle" x="246" y="-62.6" font-family="Times,serif" font-size="14.00">TodoListComponent</text>
</g>
<!-- TodoListComponent&#45;&gt;TodoModule -->
<g id="edge4" class="edge">
<title>TodoListComponent&#45;&gt;TodoModule</title>
<path fill="none" stroke="black" d="M246,-84.82C246,-102.17 246,-125.8 246,-125.8 246,-125.8 344.33,-125.8 344.33,-125.8"/>
<polygon fill="black" stroke="black" points="344.33,-129.3 354.33,-125.8 344.33,-122.3 344.33,-129.3"/>
</g>
<!-- TodoPageComponent -->
<g id="node5" class="node">
<title>TodoPageComponent</title>
<polygon fill="#ffffb3" stroke="black" points="162.1,-84.8 23.9,-84.8 23.9,-48.8 162.1,-48.8 162.1,-84.8"/>
<text text-anchor="middle" x="93" y="-62.6" font-family="Times,serif" font-size="14.00">TodoPageComponent</text>
</g>
<!-- TodoPageComponent&#45;&gt;TodoModule -->
<g id="edge5" class="edge">
<title>TodoPageComponent&#45;&gt;TodoModule</title>
<path fill="none" stroke="black" d="M93,-85.08C93,-106.12 93,-137.8 93,-137.8 93,-137.8 344.18,-137.8 344.18,-137.8"/>
<polygon fill="black" stroke="black" points="344.18,-141.3 354.18,-137.8 344.18,-134.3 344.18,-141.3"/>
</g>
<!-- TodoPageComponent  -->
<g id="node7" class="node">
<title>TodoPageComponent </title>
<polygon fill="#fb8072" stroke="black" points="469.6,-214.8 328.4,-214.8 328.4,-178.8 469.6,-178.8 469.6,-214.8"/>
<text text-anchor="middle" x="399" y="-192.6" font-family="Times,serif" font-size="14.00">TodoPageComponent </text>
</g>
<!-- TodoModule&#45;&gt;TodoPageComponent  -->
<g id="edge6" class="edge">
<title>TodoModule&#45;&gt;TodoPageComponent </title>
<path fill="none" stroke="black" stroke-dasharray="5,2" d="M399,-149.91C399,-149.91 399,-168.79 399,-168.79"/>
<polygon fill="black" stroke="black" points="395.5,-168.79 399,-178.79 402.5,-168.79 395.5,-168.79"/>
</g>
</g>
</svg>
